<svg height="428" width="458" xmlns="http://www.w3.org/2000/svg"><g fill="none" stroke="#24b49e" stroke-linecap="round" stroke-linejoin="round" stroke-width=".8"><path d="M6.128 1h445.744c1.783 0 2.43.186 3.082.534.652.349 1.163.86 1.512 1.512.348.652.534 1.299.534 3.082v415.744c0 1.783-.186 2.43-.534 3.082a3.635 3.635 0 0 1-1.512 1.512c-.652.348-1.299.534-3.082.534H6.128c-1.783 0-2.43-.186-3.082-.534a3.635 3.635 0 0 1-1.512-1.512c-.348-.652-.534-1.299-.534-3.082V6.128c0-1.783.186-2.43.534-3.082a3.635 3.635 0 0 1 1.512-1.512C3.698 1.186 4.345 1 6.128 1zM104 266c-11.046 0-20 8.954-20 20s8.954 20 20 20h113c11.046 0 20-8.954 20-20s-8.954-20-20-20zm-17.436-48c-.892 0-1.215.093-1.54.267-.327.174-.583.43-.757.756s-.267.65-.267 1.54v2.873c0 .892.093 1.215.267 1.54s.43.583.756.757.65.267 1.54.267h284.873c.892 0 1.215-.093 1.54-.267s.583-.43.757-.756.267-.65.267-1.54v-2.873c0-.892-.093-1.215-.267-1.54s-.43-.583-.756-.757-.65-.267-1.54-.267zm0-20c-.892 0-1.215.093-1.54.267-.327.174-.583.43-.757.756s-.267.65-.267 1.54v2.873c0 .892.093 1.215.267 1.54s.43.583.756.757.65.267 1.54.267h255.873c.892 0 1.215-.093 1.54-.267s.583-.43.757-.756.267-.65.267-1.54v-2.873c0-.892-.093-1.215-.267-1.54s-.43-.583-.756-.757-.65-.267-1.54-.267zm0-20c-.892 0-1.215.093-1.54.267-.327.174-.583.43-.757.756s-.267.65-.267 1.54v2.873c0 .892.093 1.215.267 1.54s.43.583.756.757.65.267 1.54.267h284.873c.892 0 1.215-.093 1.54-.267s.583-.43.757-.756.267-.65.267-1.54v-2.873c0-.892-.093-1.215-.267-1.54s-.43-.583-.756-.757-.65-.267-1.54-.267zm2.564-56c-1.783 0-2.43.186-3.082.534a3.635 3.635 0 0 0-1.512 1.512c-.348.652-.534 1.299-.534 3.082v5.744c0 1.783.186 2.43.534 3.082.349.652.86 1.163 1.512 1.512.652.348 1.299.534 3.082.534h250.744c1.783 0 2.43-.186 3.082-.534a3.635 3.635 0 0 0 1.512-1.512c.348-.652.534-1.299.534-3.082v-5.744c0-1.783-.186-2.43-.534-3.082a3.635 3.635 0 0 0-1.512-1.512c-.652-.348-1.299-.534-3.082-.534z" stroke-opacity=".15"/><path d="M104 266h113c11.046 0 20 8.954 20 20s-8.954 20-20 20H104c-11.046 0-20-8.954-20-20s8.954-20 20-20z"/></g></svg>