<?xml version="1.0" encoding="UTF-8"?>
<svg width="352px" height="720px" viewBox="0 0 352 720" version="1.1" xmlns="http://www.w3.org/2000/svg" xmlns:xlink="http://www.w3.org/1999/xlink">
    <!-- Generator: Sketch 55 (78076) - https://sketchapp.com -->
    <title>smartphone</title>
    <desc>Created with Sketch.</desc>
    <defs>
        <linearGradient x1="61.9475828%" y1="0%" x2="37.1832119%" y2="106.81565%" id="linearGradient-1">
            <stop stop-color="#3B454E" offset="0%"></stop>
            <stop stop-color="#293138" offset="100%"></stop>
        </linearGradient>
        <linearGradient x1="54.5287453%" y1="0%" x2="47.0594946%" y2="116.255855%" id="linearGradient-2">
            <stop stop-color="#243442" offset="0%"></stop>
            <stop stop-color="#0C1A27" offset="100%"></stop>
        </linearGradient>
    </defs>
    <g id="smartphone" stroke="none" stroke-width="1" fill="none" fill-rule="evenodd">
        <path d="M1.3,258.608375 C0.14817764,258.300041 -0.7,257.249072 -0.7,256 L-0.7,212 C-0.7,210.750928 0.14817764,209.699959 1.3,209.391625 L1.3,194.608375 C0.14817764,194.300041 -0.7,193.249072 -0.7,192 L-0.7,148 C-0.7,146.750928 0.14817764,145.699959 1.3,145.391625 L1.3,122.608375 C0.14817764,122.300041 -0.7,121.249072 -0.7,120 L-0.7,100 C-0.7,98.7509282 0.14817764,97.6999589 1.3,97.3916251 L1.3,63.5332448 C1.3,43.9199705 2.97800304,35.2305576 7.79391565,26.2255839 C12.0425257,18.2813738 18.2813738,12.0425257 26.2255839,7.79391565 C35.2305576,2.97800304 43.9199705,1.3 63.5332448,1.3 L288.466755,1.3 C308.08003,1.3 316.769442,2.97800304 325.774416,7.79391565 C333.718626,12.0425257 339.957474,18.2813738 344.206084,26.2255839 C349.021997,35.2305576 350.7,43.9199705 350.7,63.5332448 L350.7,656.466755 C350.7,676.08003 349.021997,684.769442 344.206084,693.774416 C339.957474,701.718626 333.718626,707.957474 325.774416,712.206084 C316.769442,717.021997 308.08003,718.7 288.466755,718.7 L63.5332448,718.7 C43.9199705,718.7 35.2305576,717.021997 26.2255839,712.206084 C18.2813738,707.957474 12.0425257,701.718626 7.79391565,693.774416 C2.97800304,684.769442 1.3,676.08003 1.3,656.466755 L1.3,258.608375 Z M57.0221632,16.7017254 C44.1227725,16.7017254 38.511781,17.7852578 32.7005879,20.8931179 C27.6077611,23.6167915 23.6150661,27.6094865 20.8913925,32.7023133 C17.7835324,38.5135064 16.7,44.1244979 16.7,57.0238886 L16.7,662.979562 C16.7,675.878953 17.7835324,681.489944 20.8913925,687.301137 C23.6150661,692.393964 27.6077611,696.386659 32.7005879,699.110333 C38.511781,702.218193 44.1227725,703.301725 57.0221632,703.301725 L294.977837,703.301725 C307.877228,703.301725 313.488219,702.218193 319.299412,699.110333 C324.392239,696.386659 328.384934,692.393964 331.108608,687.301137 C334.216468,681.489944 335.3,675.878953 335.3,662.979562 L335.3,57.0238886 C335.3,44.1244979 334.216468,38.5135064 331.108608,32.7023133 C328.384934,27.6094865 324.392239,23.6167915 319.299412,20.8931179 C313.488219,17.7852578 307.877228,16.7017254 294.977837,16.7017254 L57.0221632,16.7017254 Z" id="body" stroke-opacity="0.04" stroke="#000000" stroke-width="1.4" fill="url(#linearGradient-1)"></path>
        <path d="M62.9693596,4 L289.03064,4 C309.535571,4 316.971155,6.13498906 324.467451,10.1440522 C331.963747,14.1531153 337.846885,20.0362525 341.855948,27.5325488 C345.865011,35.0288451 348,42.4644286 348,62.9693596 L348,657.03064 C348,677.535571 345.865011,684.971155 341.855948,692.467451 C337.846885,699.963747 331.963747,705.846885 324.467451,709.855948 C316.971155,713.865011 309.535571,716 289.03064,716 L62.9693596,716 C42.4644286,716 35.0288451,713.865011 27.5325488,709.855948 C20.0362525,705.846885 14.1531153,699.963747 10.1440522,692.467451 C6.13498906,684.971155 4,677.535571 4,657.03064 L4,62.9693596 C4,42.4644286 6.13498906,35.0288451 10.1440522,27.5325488 C14.1531153,20.0362525 20.0362525,14.1531153 27.5325488,10.1440522 C35.0288451,6.13498906 42.4644286,4 62.9693596,4 Z M59.0221632,18 C44.7578634,18 39.5852836,19.4852098 34.3704687,22.2741233 C29.1556539,25.0630367 25.0630367,29.1556539 22.2741233,34.3704687 C19.4852098,39.5852836 18,44.7578634 18,59.0221632 L18,660.977837 C18,675.242137 19.4852098,680.414716 22.2741233,685.629531 C25.0630367,690.844346 29.1556539,694.936963 34.3704687,697.725877 C39.5852836,700.51479 44.7578634,702 59.0221632,702 L292.977837,702 C307.242137,702 312.414716,700.51479 317.629531,697.725877 C322.844346,694.936963 326.936963,690.844346 329.725877,685.629531 C332.51479,680.414716 334,675.242137 334,660.977837 L334,59.0221632 C334,44.7578634 332.51479,39.5852836 329.725877,34.3704687 C326.936963,29.1556539 322.844346,25.0630367 317.629531,22.2741233 C312.414716,19.4852098 307.242137,18 292.977837,18 L59.0221632,18 Z" id="screen-frame" stroke-opacity="0.03" stroke="#000000" stroke-width="2.4000001" fill="url(#linearGradient-2)"></path>
    </g>
</svg>