<?xml version="1.0" encoding="UTF-8"?>
<svg width="144px" height="32px" viewBox="0 0 144 32" version="1.1" xmlns="http://www.w3.org/2000/svg" xmlns:xlink="http://www.w3.org/1999/xlink">
    <!-- Generator: Sketch 52.3 (67297) - http://www.bohemiancoding.com/sketch -->
    <title>kolossal-logo</title>
    <desc>Created with Sketch.</desc>
    <g id="Symbols" stroke="none" stroke-width="1" fill="none" fill-rule="evenodd">
        <g id="Asset-/-Logo" fill="#F2D357">
            <!-- <path d="M137.67,25.886 L134,25.886 L134,8.67 L137.67,5 L137.67,25.886 Z M116,19.34 C116,14.625 119.013,12 122.624,12 C124.861,12 126.353,12.954 127.218,14.387 L127.278,14.387 L127.278,12.447 L130.918,12.447 L130.918,26.232 L127.278,26.232 L127.278,24.292 L127.218,24.292 C126.353,25.725 124.861,26.68 122.624,26.68 C119.013,26.68 116,24.054 116,19.34 Z M127.278,19.34 C127.278,17.012 125.757,15.461 123.549,15.461 C121.341,15.461 119.819,17.012 119.819,19.34 C119.819,21.667 121.341,23.219 123.549,23.219 C125.757,23.219 127.278,21.667 127.278,19.34 Z M104,25.218 L105.492,22.114 C106.865,22.92 108.446,23.547 110.117,23.547 C111.25,23.547 111.817,23.248 111.817,22.562 C111.817,22.025 111.43,21.756 110.624,21.368 L108.147,20.294 C105.969,19.34 105.044,17.967 105.044,16.177 C105.044,13.491 106.924,12 110.385,12 C111.967,12 113.667,12.358 115.279,12.954 L114.055,16.028 C112.802,15.49 111.43,15.073 110.176,15.073 C109.103,15.073 108.774,15.402 108.774,15.908 C108.774,16.446 109.132,16.744 110.087,17.161 L112.563,18.236 C114.503,19.041 115.607,20.205 115.607,22.264 C115.607,25.307 113.339,26.68 109.908,26.68 C107.999,26.68 105.82,26.232 104,25.218 Z M92,25.218 L93.492,22.114 C94.865,22.92 96.446,23.547 98.117,23.547 C99.25,23.547 99.817,23.248 99.817,22.562 C99.817,22.025 99.43,21.756 98.624,21.368 L96.147,20.294 C93.969,19.34 93.044,17.967 93.044,16.177 C93.044,13.491 94.924,12 98.385,12 C99.967,12 101.667,12.358 103.279,12.954 L102.055,16.028 C100.802,15.49 99.43,15.073 98.176,15.073 C97.103,15.073 96.774,15.402 96.774,15.908 C96.774,16.446 97.132,16.744 98.087,17.161 L100.563,18.236 C102.503,19.041 103.607,20.205 103.607,22.264 C103.607,25.307 101.339,26.68 97.908,26.68 C95.999,26.68 93.82,26.232 92,25.218 Z M91.276,19.34 C91.276,23.666 88.024,26.68 83.638,26.68 C79.252,26.68 76,23.666 76,19.34 C76,15.013 79.252,12 83.638,12 C88.024,12 91.276,15.013 91.276,19.34 Z M79.759,19.34 C79.759,21.696 81.4,23.219 83.638,23.219 C85.876,23.219 87.487,21.696 87.487,19.34 C87.487,16.983 85.876,15.461 83.638,15.461 C81.4,15.461 79.759,16.983 79.759,19.34 Z M74.67,25.886 L71,25.886 L71,8.67 L74.67,5 L74.67,25.886 Z M68.276,19.34 C68.276,23.666 65.024,26.68 60.638,26.68 C56.252,26.68 53,23.666 53,19.34 C53,15.013 56.252,12 60.638,12 C65.024,12 68.276,15.013 68.276,19.34 Z M56.759,19.34 C56.759,21.696 58.4,23.219 60.638,23.219 C62.876,23.219 64.487,21.696 64.487,19.34 C64.487,16.983 62.876,15.461 60.638,15.461 C58.4,15.461 56.759,16.983 56.759,19.34 Z M48.832,25.886 L43.67,19.323 L43.67,25.886 L40,25.886 L40,8.67 L43.67,5 L43.67,17.771 L48.206,12.102 L52.86,12.102 L47.221,18.367 L53.606,25.886 L48.832,25.886 Z M0,1.42108547e-14 L32,1.42108547e-14 L16,16 L32,32 L0,32 L0,1.42108547e-14 Z M13.405783,18.594217 L3.67009509,28.3283524 L23.1399185,28.3283524 L13.405783,18.594217 Z M3.67009509,3.67009509 L3.67009509,23.1399185 L23.1399185,3.67009509 L3.67009509,3.67009509 Z" id="logo"></path> -->
        </g>
    </g>
</svg>