<svg height="960" width="1440" xmlns="http://www.w3.org/2000/svg"><g fill="none" fill-rule="evenodd"><path d="M0 960h720V480H0z" fill="#50ffb1"/><path d="M259.757 696.887h-22c-6.076 0-11 4.924-11 11s4.924 11 11 11h22c6.075 0 11-4.926 11-11s-4.925-11-11-11m-22 18.7a7.7 7.7 0 1 1 .001-15.401 7.7 7.7 0 0 1-.001 15.4" fill="#041428"/><path d="M270.757 722.887h-22c-6.076 0-11 4.924-11 11 0 6.074 4.924 11 11 11h22c6.075 0 11-4.926 11-11 0-6.076-4.925-11-11-11m0 18.7a7.7 7.7 0 0 1-7.7-7.7 7.7 7.7 0 1 1 15.4 0 7.7 7.7 0 0 1-7.7 7.7" fill="#24b49e"/><path d="M325.757 717.887h-4.359v-12.313l-5.376 8.028h-2.528l-5.376-8.057v12.342h-4.361v-20h4.04l6.974 10.399 6.947-10.4h4.039zm10.494-14.552c5.726 0 7.568 4.46 6.648 8.493h-9.727c.46 1.989 2.59 2.813 4.863 2.813 1.583 0 2.992-.313 4.172-.824v3.095c-1.295.542-2.992.854-5.065.854-4.372 0-7.998-2.473-7.998-7.215 0-5.141 4-7.216 7.107-7.216m.144 3.012c-1.697 0-3.195 1.05-3.252 2.925h6.159c.143-.936-.403-2.925-2.907-2.925m11.289-4.885c-1.238 0-2.331-.682-2.331-2.247 0-1.533 1.093-2.215 2.33-2.215 1.265 0 2.358.682 2.358 2.215 0 1.565-1.093 2.247-2.357 2.247zm-1.986 15.906h4v-13.635h-4zm15.6-14.033c3.627 0 5.611 2.442 5.611 5.595v8.438h-4v-7.925c0-1.848-1.122-2.7-2.676-2.7-1.41 0-2.503.91-3.078 1.733v8.892h-4v-13.635h3.538v1.733c1.067-1.222 2.62-2.131 4.605-2.131m-58.541 37.467l9.868-13.057h-9.43v-3.858h15.211v3.088l-9.896 13.055h10.247v3.857h-16zm31.158 3.196h-3.58v-1.764c-1.078 1.243-2.679 2.17-4.658 2.17-3.785 0-5.677-2.488-5.677-5.698v-8.59h4.046v8.068c0 1.85 1.02 2.747 2.678 2.747 1.455 0 2.533-.925 3.144-1.762v-9.053h4.047zm9.498-14.288c2.562 0 4.163 1.188 5.067 2.43v-2.025h3.55v13.506c0 5.294-3.93 7.145-8.036 7.145-2.182 0-4.219-.491-5.909-1.302v-3.528c1.573.926 3.464 1.446 5.386 1.446 2.475 0 4.54-.838 4.54-3.586v-1.272c-.9.982-2.385 1.879-4.598 1.879-4.454 0-6.84-3.559-6.84-7.348 0-3.786 2.386-7.345 6.84-7.345m.961 3.385c-2.3 0-3.668 1.791-3.668 3.96 0 2.172 1.367 3.964 3.668 3.964 1.776 0 3.084-1.07 3.638-2.228v-3.384a3.989 3.989 0 0 0-3.638-2.312m17.156 11.308c-4.454 0-6.84-3.558-6.84-7.347 0-3.787 2.386-7.345 6.84-7.345 2.562 0 4.162 1.186 5.065 2.43v-2.026h3.55v13.883h-3.55v-2.025c-.903 1.243-2.503 2.43-5.065 2.43m.96-3.383c1.777 0 3.086-1.1 3.64-2.313v-3.3a3.994 3.994 0 0 0-3.64-2.313c-2.299 0-3.666 1.792-3.666 3.962s1.367 3.964 3.666 3.964m19.34-11.31c3.668 0 5.676 2.487 5.676 5.697v8.591h-4.046v-8.068c0-1.882-1.136-2.749-2.707-2.749-1.426 0-2.533.927-3.114 1.764v9.053h-4.047v-13.883h3.58v1.764c1.078-1.243 2.65-2.169 4.657-2.169m15.002 0c2.562 0 4.162 1.188 5.066 2.43v-2.025h3.55v13.506c0 5.294-3.93 7.145-8.033 7.145-2.183 0-4.221-.491-5.91-1.302v-3.528c1.572.926 3.463 1.446 5.386 1.446 2.475 0 4.541-.838 4.541-3.586v-1.272c-.903.982-2.389 1.879-4.6 1.879-4.454 0-6.84-3.559-6.84-7.348 0-3.786 2.386-7.345 6.84-7.345m.96 3.385c-2.3 0-3.667 1.791-3.667 3.96 0 2.172 1.368 3.964 3.667 3.964 1.778 0 3.086-1.07 3.64-2.228v-3.384a3.991 3.991 0 0 0-3.64-2.312m16.312-3.385c1.979 0 3.726.492 5.153 1.188v3.296c-1.195-.81-3.23-1.418-4.892-1.418-.901 0-1.948.26-1.948 1.1 0 2.313 7.888 1.157 7.888 6.246 0 3.268-2.998 4.28-6.345 4.28-2.127 0-4.134-.463-5.56-1.3v-3.326c1.51.982 3.637 1.474 5.325 1.474 1.486 0 2.446-.259 2.446-1.04 0-2.226-7.888-1.245-7.888-6.218 0-3.213 2.882-4.282 5.821-4.282m23.352 14.288h-3.55v-2.025c-.903 1.243-2.503 2.43-5.065 2.43-4.454 0-6.842-3.558-6.842-7.348 0-3.787 2.388-7.345 6.842-7.345 2.21 0 3.697.897 4.6 1.88v-7.838h4.015zm-7.656-10.903c-2.299 0-3.667 1.792-3.667 3.96 0 2.172 1.368 3.964 3.667 3.964 1.778 0 3.086-1.1 3.641-2.313v-3.298a3.994 3.994 0 0 0-3.641-2.313zm13.139-5.295c-1.252 0-2.356-.692-2.356-2.284 0-1.562 1.104-2.256 2.356-2.256 1.283 0 2.386.694 2.386 2.256 0 1.592-1.103 2.284-2.386 2.284zm-2.008 16.198h4.046v-13.883h-4.046zm13.947-14.288c5.793 0 7.656 4.541 6.724 8.648h-9.839c.467 2.025 2.622 2.864 4.92 2.864 1.602 0 3.028-.318 4.222-.839v3.154c-1.31.549-3.029.866-5.124.866-4.426 0-8.093-2.517-8.093-7.348 0-5.232 4.047-7.345 7.19-7.345m.146 3.066c-1.717 0-3.23 1.07-3.289 2.98h6.23c.146-.954-.409-2.98-2.94-2.98m17.618-3.066c3.67 0 5.677 2.487 5.677 5.697v8.591h-4.046v-8.068c0-1.882-1.136-2.749-2.707-2.749-1.426 0-2.533.927-3.114 1.764v9.053h-4.047v-13.883h3.58v1.764c1.078-1.243 2.65-2.169 4.657-2.169m14.158 0c1.98 0 3.726.492 5.153 1.188v3.296c-1.194-.81-3.231-1.418-4.893-1.418-.9 0-1.948.26-1.948 1.1 0 2.313 7.89 1.157 7.89 6.246 0 3.268-3 4.28-6.346 4.28-2.126 0-4.134-.463-5.561-1.3v-3.326c1.511.982 3.638 1.474 5.326 1.474 1.486 0 2.445-.259 2.445-1.04 0-2.226-7.887-1.245-7.887-6.218 0-3.213 2.882-4.282 5.821-4.282m13.75.405h4.423v3.385h-4.423v5.438c0 1.446.728 2.08 2.24 2.08.931 0 1.719-.143 2.534-.46v3.237c-1.079.377-2.358.608-3.757.608-2.707 0-5.035-1.243-5.035-4.686V733.5h-2.358v-3.385h2.358v-4.047l4.018-.957z" fill="#041428"/><path d="M720 960h720V480H720z" fill="#564787"/><path d="M979.757 696.887h-22c-6.076 0-11 4.924-11 11s4.924 11 11 11h22c6.075 0 11-4.926 11-11s-4.925-11-11-11m-22 18.7a7.7 7.7 0 1 1 .001-15.401 7.7 7.7 0 0 1-.001 15.4" fill="#fefefe"/><path d="M990.757 722.887h-22c-6.076 0-11 4.924-11 11 0 6.074 4.924 11 11 11h22c6.075 0 11-4.926 11-11 0-6.076-4.925-11-11-11m0 18.7a7.7 7.7 0 0 1-7.7-7.7 7.7 7.7 0 1 1 15.4 0 7.7 7.7 0 0 1-7.7 7.7" fill="#50ffb1"/><path d="M1045.757 717.887h-4.359v-12.313l-5.376 8.028h-2.528l-5.376-8.057v12.342h-4.361v-20h4.04l6.974 10.399 6.947-10.4h4.039zm10.494-14.552c5.726 0 7.568 4.46 6.648 8.493h-9.727c.46 1.989 2.59 2.813 4.863 2.813 1.583 0 2.992-.313 4.172-.824v3.095c-1.295.542-2.992.854-5.065.854-4.372 0-7.998-2.473-7.998-7.215 0-5.141 4-7.216 7.107-7.216m.144 3.012c-1.697 0-3.195 1.05-3.252 2.925h6.159c.143-.936-.403-2.925-2.907-2.925m11.289-4.885c-1.238 0-2.332-.682-2.332-2.247 0-1.533 1.094-2.215 2.332-2.215 1.265 0 2.357.682 2.357 2.215 0 1.565-1.092 2.247-2.357 2.247zm-1.986 15.906h4v-13.635h-4zm15.6-14.033c3.627 0 5.611 2.442 5.611 5.595v8.438h-4v-7.925c0-1.848-1.122-2.7-2.676-2.7-1.41 0-2.503.91-3.078 1.733v8.892h-4v-13.635h3.538v1.733c1.067-1.222 2.62-2.131 4.605-2.131m-58.541 37.467l9.868-13.057h-9.43v-3.858h15.211v3.088l-9.896 13.055h10.247v3.857h-16zm31.158 3.196h-3.58v-1.764c-1.078 1.243-2.679 2.17-4.658 2.17-3.785 0-5.677-2.488-5.677-5.698v-8.59h4.046v8.068c0 1.85 1.02 2.747 2.678 2.747 1.455 0 2.533-.925 3.144-1.762v-9.053h4.047zm9.498-14.288c2.562 0 4.163 1.188 5.067 2.43v-2.025h3.55v13.506c0 5.294-3.93 7.145-8.036 7.145-2.182 0-4.219-.491-5.909-1.302v-3.528c1.573.926 3.464 1.446 5.386 1.446 2.475 0 4.54-.838 4.54-3.586v-1.272c-.9.982-2.385 1.879-4.598 1.879-4.454 0-6.84-3.559-6.84-7.348 0-3.786 2.386-7.345 6.84-7.345m.961 3.385c-2.3 0-3.668 1.791-3.668 3.96 0 2.172 1.367 3.964 3.668 3.964 1.776 0 3.084-1.07 3.638-2.228v-3.384a3.989 3.989 0 0 0-3.638-2.312m17.156 11.308c-4.454 0-6.84-3.558-6.84-7.347 0-3.787 2.386-7.345 6.84-7.345 2.562 0 4.162 1.186 5.065 2.43v-2.026h3.55v13.883h-3.55v-2.025c-.903 1.243-2.503 2.43-5.065 2.43m.96-3.383c1.777 0 3.086-1.1 3.64-2.313v-3.3a3.994 3.994 0 0 0-3.64-2.313c-2.299 0-3.666 1.792-3.666 3.962s1.367 3.964 3.666 3.964m19.34-11.31c3.668 0 5.676 2.487 5.676 5.697v8.591h-4.046v-8.068c0-1.882-1.136-2.749-2.707-2.749-1.426 0-2.533.927-3.114 1.764v9.053h-4.047v-13.883h3.58v1.764c1.078-1.243 2.65-2.169 4.657-2.169m15.002 0c2.562 0 4.162 1.188 5.066 2.43v-2.025h3.55v13.506c0 5.294-3.93 7.145-8.033 7.145-2.183 0-4.221-.491-5.91-1.302v-3.528c1.572.926 3.463 1.446 5.386 1.446 2.475 0 4.541-.838 4.541-3.586v-1.272c-.903.982-2.389 1.879-4.6 1.879-4.454 0-6.84-3.559-6.84-7.348 0-3.786 2.386-7.345 6.84-7.345m.96 3.385c-2.3 0-3.667 1.791-3.667 3.96 0 2.172 1.368 3.964 3.667 3.964 1.778 0 3.086-1.07 3.64-2.228v-3.384a3.991 3.991 0 0 0-3.64-2.312m16.312-3.385c1.979 0 3.726.492 5.153 1.188v3.296c-1.195-.81-3.23-1.418-4.892-1.418-.901 0-1.948.26-1.948 1.1 0 2.313 7.888 1.157 7.888 6.246 0 3.268-2.998 4.28-6.345 4.28-2.127 0-4.134-.463-5.56-1.3v-3.326c1.51.982 3.637 1.474 5.325 1.474 1.486 0 2.446-.259 2.446-1.04 0-2.226-7.888-1.245-7.888-6.218 0-3.213 2.882-4.282 5.821-4.282m23.352 14.288h-3.55v-2.025c-.904 1.243-2.503 2.43-5.065 2.43-4.454 0-6.842-3.558-6.842-7.348 0-3.787 2.388-7.345 6.842-7.345 2.21 0 3.697.897 4.6 1.88v-7.838h4.015zm-7.656-10.903c-2.299 0-3.667 1.792-3.667 3.96 0 2.172 1.368 3.964 3.667 3.964 1.778 0 3.086-1.1 3.64-2.313v-3.298a3.994 3.994 0 0 0-3.64-2.313zm13.139-5.295c-1.252 0-2.356-.692-2.356-2.284 0-1.562 1.104-2.256 2.356-2.256 1.281 0 2.386.694 2.386 2.256 0 1.592-1.105 2.284-2.386 2.284zm-2.008 16.198h4.046v-13.883h-4.046zm13.947-14.288c5.793 0 7.656 4.541 6.724 8.648h-9.839c.467 2.025 2.622 2.864 4.92 2.864 1.602 0 3.028-.318 4.222-.839v3.154c-1.31.549-3.029.866-5.124.866-4.426 0-8.093-2.517-8.093-7.348 0-5.232 4.047-7.345 7.19-7.345m.146 3.066c-1.717 0-3.23 1.07-3.289 2.98h6.23c.146-.954-.409-2.98-2.94-2.98m17.618-3.066c3.67 0 5.677 2.487 5.677 5.697v8.591h-4.046v-8.068c0-1.882-1.136-2.749-2.707-2.749-1.426 0-2.534.927-3.114 1.764v9.053h-4.047v-13.883h3.58v1.764c1.078-1.243 2.65-2.169 4.657-2.169m14.158 0c1.98 0 3.726.492 5.153 1.188v3.296c-1.195-.81-3.23-1.418-4.893-1.418-.9 0-1.947.26-1.947 1.1 0 2.313 7.887 1.157 7.887 6.246 0 3.268-2.997 4.28-6.344 4.28-2.126 0-4.134-.463-5.561-1.3v-3.326c1.512.982 3.638 1.474 5.326 1.474 1.486 0 2.445-.259 2.445-1.04 0-2.226-7.887-1.245-7.887-6.218 0-3.213 2.881-4.282 5.821-4.282m13.75.405h4.423v3.385h-4.423v5.438c0 1.446.728 2.08 2.24 2.08.931 0 1.719-.143 2.534-.46v3.237c-1.079.377-2.358.608-3.757.608-2.707 0-5.035-1.243-5.035-4.686V733.5h-2.358v-3.385h2.358v-4.047l4.018-.957z" fill="#fefefe"/><path d="M720 480h720V0H720z" fill="#24b49e"/><path d="M979.757 215.787h-22c-6.076 0-11 4.924-11 11s4.924 11 11 11h22c6.075 0 11-4.926 11-11s-4.925-11-11-11m-22 18.7a7.7 7.7 0 1 1 .001-15.401 7.7 7.7 0 0 1-.001 15.4" fill="#041428"/><path d="M990.757 242.787h-22c-6.076 0-11 4.924-11 11 0 6.074 4.924 11 11 11h22c6.075 0 11-4.926 11-11 0-6.076-4.925-11-11-11m0 18.7a7.7 7.7 0 0 1-7.7-7.7 7.7 7.7 0 1 1 15.4 0 7.7 7.7 0 0 1-7.7 7.7" fill="#fefefe"/><path d="M1045.757 236.787h-4.359v-12.313l-5.376 8.028h-2.528l-5.376-8.057v12.342h-4.361v-20h4.04l6.974 10.399 6.947-10.4h4.039zm10.494-13.452c5.726 0 7.568 4.46 6.648 8.493h-9.727c.46 1.989 2.59 2.813 4.863 2.813 1.583 0 2.992-.313 4.172-.824v3.095c-1.295.542-2.992.854-5.065.854-4.372 0-7.998-2.473-7.998-7.215 0-5.141 4-7.216 7.107-7.216m.144 3.012c-1.697 0-3.195 1.05-3.252 2.926h6.159c.143-.937-.403-2.926-2.907-2.926m11.289-4.885c-1.238 0-2.332-.682-2.332-2.247 0-1.533 1.094-2.215 2.332-2.215 1.265 0 2.357.682 2.357 2.215 0 1.565-1.092 2.247-2.357 2.247zm-1.986 15.906h4v-13.635h-4zm15.6-14.033c3.627 0 5.611 2.442 5.611 5.595v8.438h-4v-7.925c0-1.848-1.122-2.7-2.676-2.7-1.41 0-2.503.91-3.078 1.733v8.892h-4v-13.635h3.538v1.733c1.067-1.222 2.62-2.131 4.605-2.131m-58.541 37.367l9.868-13.057h-9.43v-3.858h15.211v3.088l-9.896 13.055h10.247v3.857h-16zm31.158 3.316h-3.58v-1.764c-1.078 1.243-2.679 2.17-4.658 2.17-3.785 0-5.677-2.488-5.677-5.698v-8.59h4.046v8.068c0 1.85 1.02 2.747 2.678 2.747 1.455 0 2.533-.925 3.144-1.762v-9.053h4.047zm9.498-14.288c2.562 0 4.163 1.188 5.067 2.43v-2.025h3.55v13.506c0 5.294-3.93 7.145-8.036 7.145-2.182 0-4.219-.492-5.909-1.302v-3.528c1.573.926 3.464 1.446 5.386 1.446 2.475 0 4.54-.838 4.54-3.586v-1.272c-.9.982-2.385 1.879-4.598 1.879-4.454 0-6.84-3.559-6.84-7.348 0-3.786 2.386-7.345 6.84-7.345m.961 3.384c-2.3 0-3.668 1.792-3.668 3.961 0 2.172 1.367 3.964 3.668 3.964 1.776 0 3.084-1.07 3.638-2.228v-3.384a3.99 3.99 0 0 0-3.638-2.313m17.156 11.31c-4.454 0-6.84-3.56-6.84-7.348 0-3.787 2.386-7.345 6.84-7.345 2.562 0 4.162 1.186 5.065 2.43v-2.026h3.55v13.883h-3.55v-2.025c-.903 1.243-2.503 2.43-5.065 2.43m.96-3.383c1.777 0 3.086-1.1 3.64-2.313v-3.3a3.994 3.994 0 0 0-3.64-2.313c-2.299 0-3.666 1.792-3.666 3.962s1.367 3.964 3.666 3.964m19.34-11.31c3.668 0 5.676 2.487 5.676 5.697v8.591h-4.046v-8.068c0-1.882-1.136-2.749-2.707-2.749-1.426 0-2.533.927-3.114 1.764v9.053h-4.047v-13.883h3.58v1.764c1.078-1.243 2.65-2.169 4.657-2.169m15.002 0c2.562 0 4.162 1.188 5.066 2.43v-2.025h3.55v13.506c0 5.294-3.93 7.145-8.033 7.145-2.183 0-4.221-.492-5.91-1.302v-3.528c1.572.926 3.463 1.446 5.386 1.446 2.475 0 4.541-.838 4.541-3.586v-1.272c-.903.982-2.389 1.879-4.6 1.879-4.454 0-6.84-3.559-6.84-7.348 0-3.786 2.386-7.345 6.84-7.345m.96 3.384c-2.3 0-3.667 1.792-3.667 3.961 0 2.172 1.368 3.964 3.667 3.964 1.778 0 3.086-1.07 3.64-2.228v-3.384a3.992 3.992 0 0 0-3.64-2.313m16.312-3.384c1.979 0 3.726.492 5.153 1.188v3.296c-1.195-.81-3.23-1.418-4.892-1.418-.901 0-1.948.26-1.948 1.1 0 2.313 7.888 1.157 7.888 6.246 0 3.268-2.998 4.28-6.345 4.28-2.127 0-4.134-.463-5.56-1.3v-3.326c1.51.982 3.637 1.474 5.325 1.474 1.486 0 2.446-.259 2.446-1.04 0-2.226-7.888-1.245-7.888-6.218 0-3.213 2.882-4.282 5.821-4.282m23.352 14.288h-3.55v-2.025c-.904 1.243-2.503 2.43-5.065 2.43-4.454 0-6.842-3.558-6.842-7.348 0-3.787 2.388-7.345 6.842-7.345 2.21 0 3.697.897 4.6 1.88v-7.838h4.015zm-7.656-10.903c-2.299 0-3.667 1.792-3.667 3.96 0 2.172 1.368 3.964 3.667 3.964 1.778 0 3.086-1.1 3.64-2.313v-3.298a3.994 3.994 0 0 0-3.64-2.313zm13.139-5.295c-1.252 0-2.356-.692-2.356-2.284 0-1.562 1.104-2.256 2.356-2.256 1.281 0 2.386.694 2.386 2.256 0 1.592-1.105 2.284-2.386 2.284zm-2.008 16.198h4.046v-13.883h-4.046zm13.947-14.288c5.793 0 7.656 4.541 6.724 8.648h-9.839c.467 2.025 2.622 2.864 4.92 2.864 1.602 0 3.028-.318 4.222-.839v3.154c-1.31.549-3.029.866-5.124.866-4.426 0-8.093-2.517-8.093-7.348 0-5.232 4.047-7.345 7.19-7.345m.146 3.066c-1.717 0-3.23 1.07-3.289 2.98h6.23c.146-.954-.409-2.98-2.94-2.98m17.618-3.066c3.67 0 5.677 2.487 5.677 5.697v8.591h-4.046v-8.068c0-1.882-1.136-2.749-2.707-2.749-1.426 0-2.534.927-3.114 1.764v9.053h-4.047v-13.883h3.58v1.764c1.078-1.243 2.65-2.169 4.657-2.169m14.158 0c1.98 0 3.726.492 5.153 1.188v3.296c-1.195-.81-3.23-1.418-4.893-1.418-.9 0-1.947.26-1.947 1.1 0 2.313 7.887 1.157 7.887 6.246 0 3.268-2.997 4.28-6.344 4.28-2.126 0-4.134-.463-5.561-1.3v-3.326c1.512.982 3.638 1.474 5.326 1.474 1.486 0 2.445-.259 2.445-1.04 0-2.226-7.887-1.245-7.887-6.218 0-3.213 2.881-4.282 5.821-4.282m13.75.405h4.423v3.384h-4.423v5.439c0 1.446.728 2.08 2.24 2.08.931 0 1.719-.143 2.534-.46v3.237c-1.079.377-2.358.608-3.757.608-2.707 0-5.035-1.243-5.035-4.686v-6.218h-2.358v-3.384h2.358v-4.047l4.018-.957z" fill="#041428"/><path d="M0 480h720V0H0z" fill="#fff"/><path d="M259.757 215.787h-22c-6.076 0-11 4.924-11 11s4.924 11 11 11h22c6.075 0 11-4.926 11-11s-4.925-11-11-11m-22 18.7a7.7 7.7 0 1 1 .001-15.401 7.7 7.7 0 0 1-.001 15.4" fill="#041428"/><path d="M270.757 242.787h-22c-6.076 0-11 4.924-11 11 0 6.074 4.924 11 11 11h22c6.075 0 11-4.926 11-11 0-6.076-4.925-11-11-11m0 18.7a7.7 7.7 0 0 1-7.7-7.7 7.7 7.7 0 1 1 15.4 0 7.7 7.7 0 0 1-7.7 7.7" fill="#24b49e"/><path d="M325.757 236.787h-4.359v-12.313l-5.376 8.028h-2.528l-5.376-8.057v12.342h-4.361v-20h4.04l6.974 10.399 6.947-10.4h4.039zm10.494-13.452c5.726 0 7.568 4.46 6.648 8.493h-9.727c.46 1.989 2.59 2.813 4.863 2.813 1.583 0 2.992-.313 4.172-.824v3.095c-1.295.542-2.992.854-5.065.854-4.372 0-7.998-2.473-7.998-7.215 0-5.141 4-7.216 7.107-7.216m.144 3.012c-1.697 0-3.195 1.05-3.252 2.926h6.159c.143-.937-.403-2.926-2.907-2.926m11.289-4.885c-1.238 0-2.331-.682-2.331-2.247 0-1.533 1.093-2.215 2.33-2.215 1.265 0 2.358.682 2.358 2.215 0 1.565-1.093 2.247-2.357 2.247zm-1.986 15.906h4v-13.635h-4zm15.6-14.033c3.627 0 5.611 2.442 5.611 5.595v8.438h-4v-7.925c0-1.848-1.122-2.7-2.676-2.7-1.41 0-2.503.91-3.078 1.733v8.892h-4v-13.635h3.538v1.733c1.067-1.222 2.62-2.131 4.605-2.131m-58.541 37.367l9.868-13.057h-9.43v-3.858h15.211v3.088l-9.896 13.055h10.247v3.857h-16zm31.158 3.316h-3.58v-1.764c-1.078 1.243-2.679 2.17-4.658 2.17-3.785 0-5.677-2.488-5.677-5.698v-8.59h4.046v8.068c0 1.85 1.02 2.747 2.678 2.747 1.455 0 2.533-.925 3.144-1.762v-9.053h4.047zm9.498-14.288c2.562 0 4.163 1.188 5.067 2.43v-2.025h3.55v13.506c0 5.294-3.93 7.145-8.036 7.145-2.182 0-4.219-.492-5.909-1.302v-3.528c1.573.926 3.464 1.446 5.386 1.446 2.475 0 4.54-.838 4.54-3.586v-1.272c-.9.982-2.385 1.879-4.598 1.879-4.454 0-6.84-3.559-6.84-7.348 0-3.786 2.386-7.345 6.84-7.345m.961 3.384c-2.3 0-3.668 1.792-3.668 3.961 0 2.172 1.367 3.964 3.668 3.964 1.776 0 3.084-1.07 3.638-2.228v-3.384a3.99 3.99 0 0 0-3.638-2.313m17.156 11.31c-4.454 0-6.84-3.56-6.84-7.348 0-3.787 2.386-7.345 6.84-7.345 2.562 0 4.162 1.186 5.065 2.43v-2.026h3.55v13.883h-3.55v-2.025c-.903 1.243-2.503 2.43-5.065 2.43m.96-3.383c1.777 0 3.086-1.1 3.64-2.313v-3.3a3.994 3.994 0 0 0-3.64-2.313c-2.299 0-3.666 1.792-3.666 3.962s1.367 3.964 3.666 3.964m19.34-11.31c3.668 0 5.676 2.487 5.676 5.697v8.591h-4.046v-8.068c0-1.882-1.136-2.749-2.707-2.749-1.426 0-2.533.927-3.114 1.764v9.053h-4.047v-13.883h3.58v1.764c1.078-1.243 2.65-2.169 4.657-2.169m15.002 0c2.562 0 4.162 1.188 5.066 2.43v-2.025h3.55v13.506c0 5.294-3.93 7.145-8.033 7.145-2.183 0-4.221-.492-5.91-1.302v-3.528c1.572.926 3.463 1.446 5.386 1.446 2.475 0 4.541-.838 4.541-3.586v-1.272c-.903.982-2.389 1.879-4.6 1.879-4.454 0-6.84-3.559-6.84-7.348 0-3.786 2.386-7.345 6.84-7.345m.96 3.384c-2.3 0-3.667 1.792-3.667 3.961 0 2.172 1.368 3.964 3.667 3.964 1.778 0 3.086-1.07 3.64-2.228v-3.384a3.992 3.992 0 0 0-3.64-2.313m16.312-3.384c1.979 0 3.726.492 5.153 1.188v3.296c-1.195-.81-3.23-1.418-4.892-1.418-.901 0-1.948.26-1.948 1.1 0 2.313 7.888 1.157 7.888 6.246 0 3.268-2.998 4.28-6.345 4.28-2.127 0-4.134-.463-5.56-1.3v-3.326c1.51.982 3.637 1.474 5.325 1.474 1.486 0 2.446-.259 2.446-1.04 0-2.226-7.888-1.245-7.888-6.218 0-3.213 2.882-4.282 5.821-4.282m23.352 14.288h-3.55v-2.025c-.903 1.243-2.503 2.43-5.065 2.43-4.454 0-6.842-3.558-6.842-7.348 0-3.787 2.388-7.345 6.842-7.345 2.21 0 3.697.897 4.6 1.88v-7.838h4.015zm-7.656-10.903c-2.299 0-3.667 1.792-3.667 3.96 0 2.172 1.368 3.964 3.667 3.964 1.778 0 3.086-1.1 3.641-2.313v-3.298a3.994 3.994 0 0 0-3.641-2.313zm13.139-5.295c-1.252 0-2.356-.692-2.356-2.284 0-1.562 1.104-2.256 2.356-2.256 1.283 0 2.386.694 2.386 2.256 0 1.592-1.103 2.284-2.386 2.284zm-2.008 16.198h4.046v-13.883h-4.046zm13.947-14.288c5.793 0 7.656 4.541 6.724 8.648h-9.839c.467 2.025 2.622 2.864 4.92 2.864 1.602 0 3.028-.318 4.222-.839v3.154c-1.31.549-3.029.866-5.124.866-4.426 0-8.093-2.517-8.093-7.348 0-5.232 4.047-7.345 7.19-7.345m.146 3.066c-1.717 0-3.23 1.07-3.289 2.98h6.23c.146-.954-.409-2.98-2.94-2.98m17.618-3.066c3.67 0 5.677 2.487 5.677 5.697v8.591h-4.046v-8.068c0-1.882-1.136-2.749-2.707-2.749-1.426 0-2.533.927-3.114 1.764v9.053h-4.047v-13.883h3.58v1.764c1.078-1.243 2.65-2.169 4.657-2.169m14.158 0c1.98 0 3.726.492 5.153 1.188v3.296c-1.194-.81-3.231-1.418-4.893-1.418-.9 0-1.948.26-1.948 1.1 0 2.313 7.89 1.157 7.89 6.246 0 3.268-3 4.28-6.346 4.28-2.126 0-4.134-.463-5.561-1.3v-3.326c1.511.982 3.638 1.474 5.326 1.474 1.486 0 2.445-.259 2.445-1.04 0-2.226-7.887-1.245-7.887-6.218 0-3.213 2.882-4.282 5.821-4.282m13.75.405h4.423v3.384h-4.423v5.439c0 1.446.728 2.08 2.24 2.08.931 0 1.719-.143 2.534-.46v3.237c-1.079.377-2.358.608-3.757.608-2.707 0-5.035-1.243-5.035-4.686v-6.218h-2.358v-3.384h2.358v-4.047l4.018-.957z" fill="#041428"/></g></svg>