<svg height="172" width="621" xmlns="http://www.w3.org/2000/svg"><g fill="none" fill-rule="evenodd"><g stroke="#50fab0"><path d="M0 82.293h620.615M0 38.07h620.615" stroke-opacity=".2"/><path d="M14.821 44.965h101.88M14.82 75.139H116.7M29.009 96.713h133.389m-133.39 30.1h133.39" stroke-opacity=".1"/><path d="M0 89.707h620.615M0 134.19h620.615M32.103 0v172" stroke-opacity=".2"/><path d="M38.624 14.828v142.344" stroke-opacity=".1"/><path d="M75.158 0v172" stroke-opacity=".2"/><path d="M68.636 14.828v142.344m13.19-142.344v142.344" stroke-opacity=".1"/><path d="M96.444 0v172" stroke-opacity=".2"/><path d="M102.966 14.828v142.344M89.776 14.828v142.344" stroke-opacity=".1"/><path d="M139.5 0v172" stroke-opacity=".2"/><path d="M132.979 14.828v142.344" stroke-opacity=".1"/><path d="M182.555 0v172" stroke-opacity=".2"/></g><path d="M227 80h-8.52V55.373l-10.507 16.056h-4.943l-10.51-16.112V80H184V40h7.895l13.632 20.799L219.105 40H227zm20.553-27.76c11.416 0 15.087 9.017 13.25 17.172h-19.386c.918 4.023 5.16 5.688 9.693 5.688 3.154 0 5.965-.632 8.316-1.665v6.257c-2.58 1.094-5.964 1.726-10.096 1.726-8.717 0-15.945-5-15.945-14.586 0-10.397 7.973-14.592 14.168-14.592zm.288 6.09c-3.384 0-6.37 2.123-6.483 5.915h12.277c.284-1.894-.804-5.915-5.794-5.915zm22.502-9.878c-2.469 0-4.647-1.379-4.647-4.541 0-3.1 2.178-4.48 4.647-4.48 2.522 0 4.701 1.38 4.701 4.48 0 3.162-2.18 4.541-4.701 4.541zm-3.958 32.161h7.972V53.045h-7.972zM297.48 52.24c7.23 0 11.186 4.94 11.186 11.314v17.059h-7.973V64.592c0-3.737-2.237-5.458-5.333-5.458-2.812 0-4.994 1.838-6.138 3.502v17.977h-7.971V53.045h7.051v3.503c2.125-2.47 5.221-4.308 9.178-4.308zM182 125.83l19.12-26.116h-18.273V92h29.472v6.175l-19.175 26.111H213V132h-31zm62.609 5.698h-7.063v-3.51c-2.126 2.474-5.284 4.317-9.19 4.317-7.467 0-11.199-4.95-11.199-11.34v-17.098h7.983v16.059c0 3.684 2.01 5.468 5.284 5.468 2.871 0 4.996-1.84 6.201-3.51v-18.017h7.984zm18.736-28.437c5.056 0 8.214 2.363 9.996 4.838v-4.032h7.005v26.88c0 10.538-7.754 14.223-15.852 14.223-4.306 0-8.326-.98-11.657-2.592v-7.022c3.101 1.843 6.833 2.878 10.624 2.878 4.88 0 8.958-1.668 8.958-7.139v-2.53c-1.78 1.954-4.707 3.74-9.074 3.74-8.785 0-13.494-7.083-13.494-14.625 0-7.536 4.709-14.619 13.494-14.619zm1.897 6.735c-4.539 0-7.237 3.567-7.237 7.884 0 4.322 2.698 7.888 7.237 7.888 3.503 0 6.086-2.128 7.177-4.433v-6.736c-1.091-2.414-3.674-4.603-7.177-4.603zm33.845 22.508c-8.785 0-13.496-7.082-13.496-14.624 0-7.536 4.71-14.62 13.496-14.62 5.054 0 8.21 2.364 9.993 4.838v-4.03h7.005v27.63h-7.005v-4.03c-1.782 2.474-4.939 4.836-9.993 4.836zm1.894-6.735c3.507 0 6.088-2.189 7.183-4.604v-6.565c-1.095-2.415-3.676-4.603-7.183-4.603-4.536 0-7.234 3.565-7.234 7.883 0 4.323 2.698 7.89 7.234 7.89zm38.152-22.508c7.238 0 11.2 4.95 11.2 11.338v17.099h-7.983v-16.057c0-3.745-2.24-5.47-5.34-5.47-2.816 0-5 1.84-6.144 3.51v18.017h-7.982v-27.631h7.06v3.511c2.127-2.475 5.227-4.317 9.189-4.317zm29.595 0c5.055 0 8.212 2.363 9.992 4.838v-4.032h7.005v26.88c0 10.538-7.752 14.223-15.847 14.223-4.307 0-8.328-.98-11.657-2.592v-7.022c3.1 1.843 6.831 2.878 10.624 2.878 4.882 0 8.959-1.668 8.959-7.139v-2.53c-1.782 1.954-4.713 3.74-9.076 3.74-8.786 0-13.496-7.083-13.496-14.625 0-7.536 4.71-14.619 13.496-14.619zm1.894 6.735c-4.536 0-7.235 3.567-7.235 7.884 0 4.322 2.699 7.888 7.235 7.888 3.507 0 6.088-2.128 7.182-4.433v-6.736c-1.094-2.414-3.675-4.603-7.182-4.603zm32.18-6.735c3.904 0 7.351.98 10.166 2.363v6.561c-2.357-1.612-6.373-2.822-9.651-2.822-1.778 0-3.845.516-3.845 2.19 0 4.602 15.563 2.301 15.563 12.43 0 6.507-5.915 8.522-12.519 8.522-4.194 0-8.154-.924-10.97-2.593v-6.618c2.984 1.954 7.178 2.935 10.508 2.935 2.932 0 4.825-.517 4.825-2.073 0-4.429-15.562-2.474-15.562-12.373 0-6.395 5.687-8.522 11.485-8.522zm46.069 28.437h-7.005v-4.03c-1.782 2.474-4.937 4.837-9.993 4.837-8.785 0-13.496-7.083-13.496-14.625 0-7.536 4.71-14.619 13.496-14.619 4.363 0 7.295 1.787 9.077 3.74V91.233h7.921zm-15.104-21.702c-4.536 0-7.234 3.567-7.234 7.884 0 4.322 2.698 7.888 7.234 7.888 3.507 0 6.088-2.189 7.183-4.602v-6.567c-1.095-2.414-3.676-4.603-7.183-4.603zm25.92-10.537c-2.469 0-4.648-1.377-4.648-4.547 0-3.106 2.179-4.49 4.647-4.49 2.53 0 4.71 1.384 4.71 4.49 0 3.17-2.18 4.547-4.71 4.547zm-3.962 32.239h7.982v-27.632h-7.982zm27.515-28.437c11.428 0 15.103 9.037 13.266 17.21h-19.41c.92 4.033 5.171 5.702 9.706 5.702 3.157 0 5.972-.633 8.33-1.67v6.277c-2.588 1.092-5.977 1.725-10.11 1.725-8.731 0-15.964-5.011-15.964-14.625 0-10.415 7.982-14.619 14.182-14.619zm.29 6.102c-3.39 0-6.373 2.128-6.49 5.93h12.287c.29-1.898-.803-5.93-5.797-5.93zm34.757-6.102c7.238 0 11.2 4.95 11.2 11.338v17.099h-7.983v-16.057c0-3.745-2.24-5.47-5.34-5.47-2.816 0-5 1.84-6.144 3.51v18.017h-7.982v-27.631h7.06v3.511c2.127-2.475 5.227-4.317 9.189-4.317zm27.93 0c3.905 0 7.35.98 10.166 2.363v6.561c-2.357-1.612-6.374-2.822-9.651-2.822-1.778 0-3.845.516-3.845 2.19 0 4.602 15.563 2.301 15.563 12.43 0 6.507-5.916 8.522-12.518 8.522-4.194 0-8.155-.924-10.97-2.593v-6.618c2.982 1.954 7.178 2.935 10.506 2.935 2.933 0 4.826-.517 4.826-2.073 0-4.429-15.561-2.474-15.561-12.373 0-6.395 5.686-8.522 11.484-8.522zm27.126.806h8.725v6.735h-8.725v10.823c0 2.879 1.435 4.144 4.42 4.144 1.836 0 3.388-.286 4.997-.919v6.446c-2.128.749-4.652 1.208-7.411 1.208-5.34 0-9.932-2.475-9.932-9.327v-12.375h-4.652v-6.735h4.652v-8.058l7.926-1.902zM96.58 38H53.512c-11.893 0-21.534 9.664-21.534 21.586 0 11.921 9.641 21.586 21.534 21.586h43.07c11.892 0 21.533-9.665 21.533-21.586 0-11.922-9.64-21.586-21.534-21.586zM53.512 74.697c-8.324 0-15.075-6.767-15.075-15.111s6.75-15.111 15.075-15.111 15.075 6.766 15.075 15.11-6.75 15.112-15.075 15.112zm64.364 15.109h-43.07c-11.892 0-21.534 9.664-21.534 21.586 0 11.921 9.642 21.586 21.535 21.586h43.069c11.893 0 21.534-9.665 21.534-21.586s-9.641-21.586-21.534-21.586zm0 36.697c-8.325 0-15.075-6.767-15.075-15.111s6.75-15.111 15.075-15.111c8.324 0 15.074 6.766 15.074 15.11s-6.75 15.112-15.074 15.112z" stroke="#24b49e"/></g></svg>